<svg xmlns="http://www.w3.org/2000/svg">
  <symbol
    id="add"
    viewBox="0 96 960 960"
    fill="currentColor"
  >
    <path d="M450 856V606H200v-60h250V296h60v250h250v60H510v250h-60Z" />
  </symbol>

  <symbol
    id="user"
    viewBox="0 0 512 512"
    fill="currentColor"
  >
    <path
      d="M256,0c-70.4,0-128,71.7-128,160s57.6,160,128,160s128-71.7,
        128-160S326.4,0,256,0z M122.3,320C54.4,323.2,0,378.9,0,448
        v64h512v-64c0-69.1-53.8-124.8-122.3-128c-34.6,39-81.9,64-133.8,
        64S156.8,359,122.3,320z"
    />
  </symbol>

  <symbol
    id="logout"
    viewBox="0 -256 1792 1792"
    fill="currentColor"
  >
    <g
      transform="matrix(1,0,0,-1,106.30509,1270.2373)"
    >
      <path
        d="m 640,96 q 0,-4 1,-20 1,-16 0.5,-26.5 Q 641,39 638.5,26 636,13
        628.5,6.5 621,0 608,0 H 288 Q 169,0 84.5,84.5 0,169 0,288 V 992 Q
        0,1111 84.5,1195.5 169,1280 288,1280 h 320 q 13,0 22.5,-9.5 9.5,-9.5
        9.5,-22.5 0,-4 1,-20 1,-16 0.5,-26.5 -0.5,-10.5 -3,-23.5 -2.5,-13 -10,
        -19.5 Q 621,1152 608,1152 H 288 q -66,0 -113,-47 -47,-47 -47,
        -113 V 288 q 0,-66 47,-113 47,-47 113,-47 h 288 11 13 q 0,0 11.5,
        -1 11.5,-1 11.5,-3 0,-2 8,-5.5 8,-3.5 7,-9 -1,-5.5 2,-13.5 z m 928,
        544 q 0,-26 -19,-45 L 1005,51 Q 986,32 960,32 934,32 915,51 896,70 896,
        96 V 384 H 448 q -26,0 -45,19 -19,19 -19,45 v 384 q 0,26 19,45 19,
        19 45,19 h 448 v 288 q 0,26 19,45 19,19 45,19 26,0 45,-19 l 544,
        -544 q 19,-19 19,-45 z"
      />
    </g>
  </symbol>

  <symbol
    id="edit"
    viewBox="0 0 24 24"
    fill="currentColor"
  >
    <g>

      <path d="M0 0h24v24H0z" fill="none" />
      <path
        d="M3 17.25V21h3.75L17.81 9.94l-3.75-3.75L3 17.25zM20.71 7.04c.39-.39.39-1.02
      0-1.41l-2.34-2.34c-.39-.39-1.02-.39-1.41 0l-1.83 1.83 3.75 3.75 1.83-1.83z"
      />
    </g>

  </symbol>

  <symbol
    id="delete"
    viewBox="0 0 24 24"
    fill="currentColor"
  >
    <path d="M0 0h24v24H0z" fill="none" />
    <path d="M6 19c0 1.1.9 2 2 2h8c1.1 0 2-.9 2-2V7H6v12zM19 4h-3.5l-1-1h-5l-1 1H5v2h14V4z" />
  </symbol>

  <symbol
    id="play"
    viewBox="0 0 24 24"
  >
    <rect
      height="24"
      width="24"
      fill="none"
    />

    <path
      d="M12,2C6.48,2,2,6.48,2,12s4.48,10,10,10s10-4.48,10-10S17.52,2,12,2z
        M12,20c-4.41,0-8-3.59-8-8s3.59-8,8-8s8,3.59,8,8 S16.41,20,12,20z M9.5,
        16.5l7-4.5l-7-4.5V16.5z"
    />
  </symbol>


  <symbol
    id="search"
    viewBox="0 0 64 64"
    fill="currentColor"
  >
    <path
      d="M45.44,18.57A10,10,0,0,0,30.62,32L18.56,44a1,1,0,0,0,0,1.41,1,1,0,0,0,.71.3,1,1,0,0,
      0,.71-.3L32,33.38a10,10,0,0,0,13.4-14.81ZM44,31.29A8,8,0,1,1,44,20,8,8,0,0,1,44,31.29Z"
    />
  </symbol>

  <symbol
    id="time"
    viewBox="0 0 24 24"
    fill="currentColor"
  >
    <path d="M0 0h24v24H0V0z" fill="none" />
    <path
      d="M11.99 2C6.47 2 2 6.48 2 12s4.47 10 9.99 10C17.52 22 22 17.52 22 12S17.52
      2 11.99 2zM12 20c-4.42 0-8-3.58-8-8s3.58-8 8-8 8 3.58 8 8-3.58 8-8
      8zm.5-13H11v6l5.25 3.15.75-1.23-4.5-2.67z"
    />
  </symbol>

  <symbol
    id="calendar"
    viewBox="0 0 24 24"
    fill="currentColor"
  >
    <rect fill="none" height="24" width="24" />
    <path
      d="M19,4h-1V2h-2v2H8V2H6v2H5C3.89,4,3.01,4.9,3.01,6L3,20c0,1.1,0.89,2,
        2,2h14c1.1,0,2-0.9,2-2V6C21,4.9,20.1,4,19,4z M19,20 H5V10h14V20z M19,
        8H5V6h14V8z M9,14H7v-2h2V14z M13,14h-2v-2h2V14z M17,14h-2v-2h2V14z
        M9,18H7v-2h2V18z M13,18h-2v-2h2V18z M17,18 h-2v-2h2V18z"
    />
  </symbol>

  <symbol
    id="star"
    viewBox="0 0 24 24"
    fill="currentColor"
  >
    <path d="M0 0h24v24H0V0z" fill="none" />
    <path d="M0 0h24v24H0V0z" fill="none" />
    <path d="M12 17.27 18.18 21l-1.64-7.03L22 9.24l-7.19-.61L12 2 9.19
      8.63 2 9.24l5.46 4.73L5.82 21 12 17.27z"
    />
  </symbol>

  <symbol
    id="close"
    viewBox="0 0 24 24"
    fill="currentColor"
  >
    <path d="M0 0h24v24H0V0z" fill="none" />
    <path
      d="M19 6.41L17.59 5 12 10.59 6.41 5 5 6.41 10.59 12 5 17.59 6.41 19
      12 13.41 17.59 19 19 17.59 13.41 12 19 6.41z"
    />
  </symbol>

  <symbol
    id="world"
    viewBox="0 0 24 24"
    fill="currentColor"
  >
    <path d="M0 0h24v24H0V0z" fill="none" />
    <path
      d="M11.99 2C6.47 2 2 6.48 2 12s4.47 10 9.99 10C17.52 22 22 17.52
      22 12S17.52 2 11.99 2zm6.93 6h-2.95c-.32-1.25-.78-2.45-1.38-3.56
      1.84.63 3.37 1.91 4.33 3.56zM12 4.04c.83 1.2 1.48 2.53 1.91
      3.96h-3.82c.43-1.43 1.08-2.76 1.91-3.96zM4.26 14C4.1 13.36 4
      12.69 4 12s.1-1.36.26-2h3.38c-.08.66-.14 1.32-.14 2s.06 1.34.14
      2H4.26zm.82 2h2.95c.32 1.25.78 2.45 1.38
      3.56-1.84-.63-3.37-1.9-4.33-3.56zm2.95-8H5.08c.96-1.66
      2.49-2.93 4.33-3.56C8.81 5.55 8.35 6.75 8.03
      8zM12 19.96c-.83-1.2-1.48-2.53-1.91-3.96h3.82c-.43
      1.43-1.08 2.76-1.91 3.96zM14.34
      14H9.66c-.09-.66-.16-1.32-.16-2s.07-1.35.16-2h4.68c.09.65.16
      1.32.16 2s-.07 1.34-.16 2zm.25 5.56c.6-1.11 1.06-2.31
      .38-3.56h2.95c-.96 1.65-2.49 2.93-4.33 3.56zM16.36
      14c.08-.66.14-1.32.14-2s-.06-1.34-.14-2h3.38c.16.64.26
      1.31.26 2s-.1 1.36-.26 2h-3.38z"
    />
  </symbol>
</svg>
